<svg width="147" height="26" viewBox="0 0 147 26" fill="none" xmlns="http://www.w3.org/2000/svg">
<path d="M10.7983 7.54545V10.7273H0.480114V7.54545H10.7983ZM3.05966 25V5.89773C3.05966 4.72348 3.30208 3.74621 3.78693 2.96591C4.27936 2.18561 4.93845 1.60227 5.7642 1.21591C6.58996 0.829544 7.50663 0.636362 8.5142 0.636362C9.22633 0.636362 9.8589 0.693181 10.4119 0.806818C10.965 0.920454 11.3741 1.02273 11.6392 1.11364L10.821 4.29545C10.6468 4.24242 10.4271 4.18939 10.1619 4.13636C9.89678 4.07576 9.60133 4.04545 9.27557 4.04545C8.51042 4.04545 7.96875 4.23106 7.65057 4.60227C7.33996 4.96591 7.18466 5.48864 7.18466 6.17045V25H3.05966ZM18.1335 1.72727V25H14.0199V1.72727H18.1335ZM30.0909 25.3409C28.3409 25.3409 26.8295 24.9773 25.5568 24.25C24.2917 23.5152 23.3182 22.4773 22.6364 21.1364C21.9545 19.7879 21.6136 18.2008 21.6136 16.375C21.6136 14.5795 21.9545 13.0038 22.6364 11.6477C23.3258 10.2841 24.2879 9.22348 25.5227 8.46591C26.7576 7.70076 28.2083 7.31818 29.875 7.31818C30.9508 7.31818 31.9659 7.49242 32.9205 7.84091C33.8826 8.18182 34.7311 8.71212 35.4659 9.43182C36.2083 10.1515 36.7917 11.0682 37.2159 12.1818C37.6402 13.2879 37.8523 14.6061 37.8523 16.1364V17.3977H23.5455V14.625H33.9091C33.9015 13.8371 33.7311 13.1364 33.3977 12.5227C33.0644 11.9015 32.5985 11.4129 32 11.0568C31.4091 10.7008 30.7197 10.5227 29.9318 10.5227C29.0909 10.5227 28.3523 10.7273 27.7159 11.1364C27.0795 11.5379 26.5833 12.0682 26.2273 12.7273C25.8788 13.3788 25.7008 14.0947 25.6932 14.875V17.2955C25.6932 18.3106 25.8788 19.1818 26.25 19.9091C26.6212 20.6288 27.1402 21.1818 27.8068 21.5682C28.4735 21.947 29.2538 22.1364 30.1477 22.1364C30.7462 22.1364 31.2879 22.053 31.7727 21.8864C32.2576 21.7121 32.678 21.4583 33.0341 21.125C33.3902 20.7917 33.6591 20.3788 33.8409 19.8864L37.6818 20.3182C37.4394 21.3333 36.9773 22.2197 36.2955 22.9773C35.6212 23.7273 34.7576 24.3106 33.7045 24.7273C32.6515 25.1364 31.447 25.3409 30.0909 25.3409ZM44.321 7.54545L47.8438 13.9886L51.4233 7.54545H55.7756L50.5142 16.2727L55.8665 25H51.5369L47.8438 18.7159L44.1847 25H39.821L45.1392 16.2727L39.9574 7.54545H44.321ZM66.3892 25.3636C64.7528 25.3636 63.3438 24.9773 62.1619 24.2045C60.9801 23.4318 60.071 22.3674 59.4347 21.0114C58.7983 19.6553 58.4801 18.1061 58.4801 16.3636C58.4801 14.5909 58.8059 13.0265 59.4574 11.6705C60.1165 10.3068 61.0331 9.24242 62.2074 8.47727C63.3892 7.70455 64.768 7.31818 66.3438 7.31818C67.571 7.31818 68.6771 7.54545 69.6619 8C70.6468 8.45455 71.4536 9.09091 72.0824 9.90909C72.7112 10.7273 73.1013 11.6818 73.2528 12.7727H70.571C70.3665 11.9773 69.9119 11.2727 69.2074 10.6591C68.5104 10.0379 67.571 9.72727 66.3892 9.72727C65.3438 9.72727 64.4271 10 63.6392 10.5455C62.8589 11.0833 62.2491 11.8447 61.8097 12.8295C61.3778 13.8068 61.1619 14.9545 61.1619 16.2727C61.1619 17.6212 61.3741 18.7955 61.7983 19.7955C62.2301 20.7955 62.8362 21.572 63.6165 22.125C64.4044 22.678 65.3286 22.9545 66.3892 22.9545C67.0862 22.9545 67.7188 22.8333 68.2869 22.5909C68.8551 22.3485 69.3362 22 69.7301 21.5455C70.1241 21.0909 70.4044 20.5455 70.571 19.9091H73.2528C73.1013 20.9394 72.7263 21.8674 72.1278 22.6932C71.5369 23.5114 70.7528 24.1629 69.7756 24.6477C68.8059 25.125 67.6771 25.3636 66.3892 25.3636ZM82.3097 25.4091C81.2036 25.4091 80.1998 25.2008 79.2983 24.7841C78.3968 24.3598 77.6809 23.75 77.1506 22.9545C76.6203 22.1515 76.3551 21.1818 76.3551 20.0455C76.3551 19.0455 76.5521 18.2348 76.946 17.6136C77.34 16.9848 77.8665 16.4924 78.5256 16.1364C79.1847 15.7803 79.9119 15.5152 80.7074 15.3409C81.5104 15.1591 82.3172 15.0152 83.1278 14.9091C84.1884 14.7727 85.0483 14.6705 85.7074 14.6023C86.3741 14.5265 86.8589 14.4015 87.1619 14.2273C87.4725 14.053 87.6278 13.75 87.6278 13.3182V13.2273C87.6278 12.1061 87.321 11.2348 86.7074 10.6136C86.1013 9.99242 85.1809 9.68182 83.946 9.68182C82.6657 9.68182 81.6619 9.96212 80.9347 10.5227C80.2074 11.0833 79.696 11.6818 79.4006 12.3182L76.8551 11.4091C77.3097 10.3485 77.9157 9.52273 78.6733 8.93182C79.4384 8.33333 80.2718 7.91667 81.1733 7.68182C82.0824 7.43939 82.9763 7.31818 83.8551 7.31818C84.4157 7.31818 85.0597 7.38636 85.7869 7.52273C86.5218 7.65151 87.2301 7.92045 87.9119 8.32954C88.6013 8.73864 89.1733 9.35606 89.6278 10.1818C90.0824 11.0076 90.3097 12.1136 90.3097 13.5V25H87.6278V22.6364H87.4915C87.3097 23.0152 87.0066 23.4205 86.5824 23.8523C86.1581 24.2841 85.5938 24.6515 84.8892 24.9545C84.1847 25.2576 83.3248 25.4091 82.3097 25.4091ZM82.7188 23C83.7794 23 84.6733 22.7917 85.4006 22.375C86.1354 21.9583 86.6884 21.4205 87.0597 20.7614C87.4384 20.1023 87.6278 19.4091 87.6278 18.6818V16.2273C87.5142 16.3636 87.2642 16.4886 86.8778 16.6023C86.4991 16.7083 86.0597 16.803 85.5597 16.8864C85.0672 16.9621 84.5862 17.0303 84.1165 17.0909C83.6544 17.1439 83.2794 17.1894 82.9915 17.2273C82.2945 17.3182 81.643 17.4659 81.0369 17.6705C80.4384 17.8674 79.9536 18.1667 79.5824 18.5682C79.2188 18.9621 79.0369 19.5 79.0369 20.1818C79.0369 21.1136 79.3816 21.8182 80.071 22.2955C80.768 22.7652 81.6506 23 82.7188 23ZM102.295 25.3636C100.659 25.3636 99.25 24.9773 98.0682 24.2045C96.8864 23.4318 95.9773 22.3674 95.3409 21.0114C94.7045 19.6553 94.3864 18.1061 94.3864 16.3636C94.3864 14.5909 94.7121 13.0265 95.3636 11.6705C96.0227 10.3068 96.9394 9.24242 98.1136 8.47727C99.2955 7.70455 100.674 7.31818 102.25 7.31818C103.477 7.31818 104.583 7.54545 105.568 8C106.553 8.45455 107.36 9.09091 107.989 9.90909C108.617 10.7273 109.008 11.6818 109.159 12.7727H106.477C106.273 11.9773 105.818 11.2727 105.114 10.6591C104.417 10.0379 103.477 9.72727 102.295 9.72727C101.25 9.72727 100.333 10 99.5455 10.5455C98.7652 11.0833 98.1553 11.8447 97.7159 12.8295C97.2841 13.8068 97.0682 14.9545 97.0682 16.2727C97.0682 17.6212 97.2803 18.7955 97.7045 19.7955C98.1364 20.7955 98.7424 21.572 99.5227 22.125C100.311 22.678 101.235 22.9545 102.295 22.9545C102.992 22.9545 103.625 22.8333 104.193 22.5909C104.761 22.3485 105.242 22 105.636 21.5455C106.03 21.0909 106.311 20.5455 106.477 19.9091H109.159C109.008 20.9394 108.633 21.8674 108.034 22.6932C107.443 23.5114 106.659 24.1629 105.682 24.6477C104.712 25.125 103.583 25.3636 102.295 25.3636ZM115.761 14.5V25H113.08V1.72727H115.761V10.2727H115.989C116.398 9.37121 117.011 8.6553 117.83 8.125C118.655 7.58712 119.754 7.31818 121.125 7.31818C122.314 7.31818 123.356 7.55682 124.25 8.03409C125.144 8.50379 125.837 9.22727 126.33 10.2045C126.83 11.1742 127.08 12.4091 127.08 13.9091V25H124.398V14.0909C124.398 12.7045 124.038 11.6326 123.318 10.875C122.606 10.1098 121.617 9.72727 120.352 9.72727C119.473 9.72727 118.686 9.91288 117.989 10.2841C117.299 10.6553 116.754 11.197 116.352 11.9091C115.958 12.6212 115.761 13.4848 115.761 14.5ZM139.304 25.3636C137.622 25.3636 136.171 24.9924 134.952 24.25C133.74 23.5 132.804 22.4545 132.145 21.1136C131.493 19.7652 131.168 18.197 131.168 16.4091C131.168 14.6212 131.493 13.0455 132.145 11.6818C132.804 10.3106 133.721 9.24242 134.895 8.47727C136.077 7.70455 137.455 7.31818 139.031 7.31818C139.94 7.31818 140.838 7.4697 141.724 7.77273C142.611 8.07576 143.418 8.56818 144.145 9.25C144.872 9.92424 145.452 10.8182 145.884 11.9318C146.315 13.0455 146.531 14.4167 146.531 16.0455V17.1818H133.077V14.8636H143.804C143.804 13.8788 143.607 13 143.213 12.2273C142.827 11.4545 142.274 10.8447 141.554 10.3977C140.842 9.95076 140.001 9.72727 139.031 9.72727C137.963 9.72727 137.039 9.99242 136.259 10.5227C135.486 11.0455 134.891 11.7273 134.474 12.5682C134.058 13.4091 133.849 14.3106 133.849 15.2727V16.8182C133.849 18.1364 134.077 19.2538 134.531 20.1705C134.993 21.0795 135.634 21.7727 136.452 22.25C137.27 22.7197 138.221 22.9545 139.304 22.9545C140.009 22.9545 140.645 22.8561 141.213 22.6591C141.789 22.4545 142.285 22.1515 142.702 21.75C143.118 21.3409 143.44 20.8333 143.668 20.2273L146.259 20.9545C145.986 21.8333 145.527 22.6061 144.884 23.2727C144.24 23.9318 143.444 24.447 142.497 24.8182C141.55 25.1818 140.486 25.3636 139.304 25.3636Z" fill="#26FC14"/>
</svg>
