<svg width="165" height="31" viewBox="0 0 165 31" fill="none" xmlns="http://www.w3.org/2000/svg">
<path d="M15.5497 11.1591L11.7997 11.5682C11.6937 11.1894 11.508 10.8333 11.2429 10.5C10.9853 10.1667 10.6368 9.89773 10.1974 9.69318C9.75805 9.48864 9.22017 9.38636 8.58381 9.38636C7.72775 9.38636 7.00805 9.57197 6.42472 9.94318C5.84896 10.3144 5.56487 10.7955 5.57244 11.3864C5.56487 11.8939 5.75047 12.3068 6.12926 12.625C6.51563 12.9432 7.15199 13.2045 8.03835 13.4091L11.0156 14.0455C12.6671 14.4015 13.8944 14.9659 14.6974 15.7386C15.508 16.5114 15.9171 17.5227 15.9247 18.7727C15.9171 19.8712 15.5952 20.8409 14.9588 21.6818C14.33 22.5152 13.455 23.1667 12.3338 23.6364C11.2126 24.1061 9.92472 24.3409 8.47017 24.3409C6.33381 24.3409 4.61411 23.8939 3.31108 23C2.00805 22.0985 1.23153 20.8447 0.981534 19.2386L4.9929 18.8523C5.17472 19.6402 5.56108 20.2348 6.15199 20.6364C6.7429 21.0379 7.51184 21.2386 8.45881 21.2386C9.43608 21.2386 10.2202 21.0379 10.8111 20.6364C11.4096 20.2348 11.7088 19.7386 11.7088 19.1477C11.7088 18.6477 11.5156 18.2348 11.1293 17.9091C10.7505 17.5833 10.1596 17.3333 9.35653 17.1591L6.37926 16.5341C4.70502 16.1856 3.46638 15.5985 2.66335 14.7727C1.86032 13.9394 1.46259 12.8864 1.47017 11.6136C1.46259 10.5379 1.75426 9.60606 2.34517 8.81818C2.94366 8.02273 3.7732 7.40909 4.83381 6.97727C5.90199 6.53788 7.13305 6.31818 8.52699 6.31818C10.5724 6.31818 12.1823 6.75379 13.3565 7.625C14.5384 8.49621 15.2694 9.67424 15.5497 11.1591ZM30.4418 16.6591V6.54545H34.5554V24H30.5668V20.8977H30.3849C29.991 21.875 29.3433 22.6742 28.4418 23.2955C27.5478 23.9167 26.4455 24.2273 25.1349 24.2273C23.991 24.2273 22.9796 23.9735 22.1009 23.4659C21.2296 22.9508 20.5478 22.2045 20.0554 21.2273C19.563 20.2424 19.3168 19.053 19.3168 17.6591V6.54545H23.4304V17.0227C23.4304 18.1288 23.7334 19.0076 24.3395 19.6591C24.9455 20.3106 25.741 20.6364 26.7259 20.6364C27.3319 20.6364 27.919 20.4886 28.4872 20.1932C29.0554 19.8977 29.5213 19.4583 29.8849 18.875C30.2562 18.2841 30.4418 17.5455 30.4418 16.6591ZM38.7855 30.5455V6.54545H42.831V9.43182H43.0696C43.2817 9.00758 43.581 8.55682 43.9673 8.07955C44.3537 7.5947 44.8764 7.18182 45.5355 6.84091C46.1946 6.49242 47.0355 6.31818 48.0582 6.31818C49.4067 6.31818 50.6226 6.66288 51.706 7.35227C52.7969 8.03409 53.6605 9.04545 54.2969 10.3864C54.9408 11.7197 55.2628 13.3561 55.2628 15.2955C55.2628 17.2121 54.9484 18.8409 54.3196 20.1818C53.6908 21.5227 52.8348 22.5455 51.7514 23.25C50.6681 23.9545 49.4408 24.3068 48.0696 24.3068C47.0696 24.3068 46.2401 24.1402 45.581 23.8068C44.9219 23.4735 44.3916 23.072 43.9901 22.6023C43.5961 22.125 43.2893 21.6742 43.0696 21.25H42.8991V30.5455H38.7855ZM42.8196 15.2727C42.8196 16.4015 42.9787 17.3902 43.2969 18.2386C43.6226 19.0871 44.0885 19.75 44.6946 20.2273C45.3082 20.697 46.0507 20.9318 46.9219 20.9318C47.831 20.9318 48.5923 20.6894 49.206 20.2045C49.8196 19.7121 50.2817 19.0417 50.5923 18.1932C50.9105 17.3371 51.0696 16.3636 51.0696 15.2727C51.0696 14.1894 50.9143 13.2273 50.6037 12.3864C50.2931 11.5455 49.831 10.8864 49.2173 10.4091C48.6037 9.93182 47.8385 9.69318 46.9219 9.69318C46.0431 9.69318 45.2969 9.92424 44.6832 10.3864C44.0696 10.8485 43.6037 11.4962 43.2855 12.3295C42.9749 13.1629 42.8196 14.1439 42.8196 15.2727ZM63.8082 24.3523C62.7022 24.3523 61.706 24.1553 60.8196 23.7614C59.9408 23.3598 59.2438 22.7689 58.7287 21.9886C58.2211 21.2083 57.9673 20.2462 57.9673 19.1023C57.9673 18.1174 58.1491 17.303 58.5128 16.6591C58.8764 16.0152 59.3726 15.5 60.0014 15.1136C60.6302 14.7273 61.3385 14.4356 62.1264 14.2386C62.9219 14.0341 63.7438 13.8864 64.5923 13.7955C65.6151 13.6894 66.4446 13.5947 67.081 13.5114C67.7173 13.4205 68.1795 13.2841 68.4673 13.1023C68.7628 12.9129 68.9105 12.6212 68.9105 12.2273V12.1591C68.9105 11.303 68.6567 10.6402 68.1491 10.1705C67.6416 9.70076 66.9105 9.46591 65.956 9.46591C64.9484 9.46591 64.1491 9.68561 63.5582 10.125C62.9749 10.5644 62.581 11.0833 62.3764 11.6818L58.5355 11.1364C58.8385 10.0758 59.3385 9.18939 60.0355 8.47727C60.7325 7.75757 61.5848 7.2197 62.5923 6.86364C63.5999 6.5 64.7135 6.31818 65.9332 6.31818C66.7741 6.31818 67.6113 6.41667 68.4446 6.61364C69.2779 6.81061 70.0393 7.13636 70.7287 7.59091C71.4181 8.03788 71.9711 8.64773 72.3878 9.42045C72.812 10.1932 73.0241 11.1591 73.0241 12.3182V24H69.0696V21.6023H68.9332C68.6832 22.0871 68.331 22.5417 67.8764 22.9659C67.4295 23.3826 66.8651 23.7197 66.1832 23.9773C65.509 24.2273 64.7173 24.3523 63.8082 24.3523ZM64.8764 21.3295C65.7022 21.3295 66.4181 21.1667 67.0241 20.8409C67.6302 20.5076 68.0961 20.0682 68.4219 19.5227C68.7552 18.9773 68.9219 18.3826 68.9219 17.7386V15.6818C68.7931 15.7879 68.5734 15.8864 68.2628 15.9773C67.9598 16.0682 67.6188 16.1477 67.2401 16.2159C66.8613 16.2841 66.4863 16.3447 66.1151 16.3977C65.7438 16.4508 65.4219 16.4962 65.1491 16.5341C64.5355 16.6174 63.9863 16.7538 63.5014 16.9432C63.0166 17.1326 62.634 17.3977 62.3537 17.7386C62.0734 18.072 61.9332 18.5038 61.9332 19.0341C61.9332 19.7917 62.2098 20.3636 62.7628 20.75C63.3158 21.1364 64.0204 21.3295 64.8764 21.3295ZM84.5923 24.3636C82.956 24.3636 81.5469 23.9773 80.3651 23.2045C79.1832 22.4318 78.2741 21.3674 77.6378 20.0114C77.0014 18.6553 76.6832 17.1061 76.6832 15.3636C76.6832 13.5909 77.009 12.0265 77.6605 10.6705C78.3196 9.30682 79.2363 8.24242 80.4105 7.47727C81.5923 6.70455 82.9711 6.31818 84.5469 6.31818C85.7741 6.31818 86.8802 6.54545 87.8651 7C88.8499 7.45455 89.6567 8.09091 90.2855 8.90909C90.9143 9.72727 91.3045 10.6818 91.456 11.7727H88.7741C88.5696 10.9773 88.1151 10.2727 87.4105 9.65909C86.7135 9.03788 85.7741 8.72727 84.5923 8.72727C83.5469 8.72727 82.6302 9 81.8423 9.54545C81.062 10.0833 80.4522 10.8447 80.0128 11.8295C79.581 12.8068 79.3651 13.9545 79.3651 15.2727C79.3651 16.6212 79.5772 17.7955 80.0014 18.7955C80.4332 19.7955 81.0393 20.572 81.8196 21.125C82.6075 21.678 83.5317 21.9545 84.5923 21.9545C85.2893 21.9545 85.9219 21.8333 86.4901 21.5909C87.0582 21.3485 87.5393 21 87.9332 20.5455C88.3272 20.0909 88.6075 19.5455 88.7741 18.9091H91.456C91.3045 19.9394 90.9295 20.8674 90.331 21.6932C89.7401 22.5114 88.956 23.1629 87.9787 23.6477C87.009 24.125 85.8802 24.3636 84.5923 24.3636ZM100.513 24.4091C99.4067 24.4091 98.4029 24.2008 97.5014 23.7841C96.5999 23.3598 95.884 22.75 95.3537 21.9545C94.8234 21.1515 94.5582 20.1818 94.5582 19.0455C94.5582 18.0455 94.7552 17.2348 95.1491 16.6136C95.5431 15.9848 96.0696 15.4924 96.7287 15.1364C97.3878 14.7803 98.1151 14.5152 98.9105 14.3409C99.7135 14.1591 100.52 14.0152 101.331 13.9091C102.392 13.7727 103.251 13.6705 103.911 13.6023C104.577 13.5265 105.062 13.4015 105.365 13.2273C105.676 13.053 105.831 12.75 105.831 12.3182V12.2273C105.831 11.1061 105.524 10.2348 104.911 9.61364C104.304 8.99242 103.384 8.68182 102.149 8.68182C100.869 8.68182 99.8651 8.96212 99.1378 9.52273C98.4105 10.0833 97.8991 10.6818 97.6037 11.3182L95.0582 10.4091C95.5128 9.34848 96.1188 8.52273 96.8764 7.93182C97.6416 7.33333 98.4749 6.91667 99.3764 6.68182C100.286 6.43939 101.179 6.31818 102.058 6.31818C102.619 6.31818 103.263 6.38636 103.99 6.52273C104.725 6.65151 105.433 6.92045 106.115 7.32954C106.804 7.73864 107.376 8.35606 107.831 9.18182C108.286 10.0076 108.513 11.1136 108.513 12.5V24H105.831V21.6364H105.695C105.513 22.0152 105.21 22.4205 104.786 22.8523C104.361 23.2841 103.797 23.6515 103.092 23.9545C102.388 24.2576 101.528 24.4091 100.513 24.4091ZM100.922 22C101.982 22 102.876 21.7917 103.604 21.375C104.339 20.9583 104.892 20.4205 105.263 19.7614C105.642 19.1023 105.831 18.4091 105.831 17.6818V15.2273C105.717 15.3636 105.467 15.4886 105.081 15.6023C104.702 15.7083 104.263 15.803 103.763 15.8864C103.27 15.9621 102.789 16.0303 102.32 16.0909C101.857 16.1439 101.482 16.1894 101.195 16.2273C100.498 16.3182 99.8461 16.4659 99.2401 16.6705C98.6416 16.8674 98.1567 17.1667 97.7855 17.5682C97.4219 17.9621 97.2401 18.5 97.2401 19.1818C97.2401 20.1136 97.5848 20.8182 98.2741 21.2955C98.9711 21.7652 99.8537 22 100.922 22ZM120.499 24.3636C118.862 24.3636 117.453 23.9773 116.271 23.2045C115.089 22.4318 114.18 21.3674 113.544 20.0114C112.908 18.6553 112.589 17.1061 112.589 15.3636C112.589 13.5909 112.915 12.0265 113.567 10.6705C114.226 9.30682 115.143 8.24242 116.317 7.47727C117.499 6.70455 118.877 6.31818 120.453 6.31818C121.68 6.31818 122.786 6.54545 123.771 7C124.756 7.45455 125.563 8.09091 126.192 8.90909C126.821 9.72727 127.211 10.6818 127.362 11.7727H124.68C124.476 10.9773 124.021 10.2727 123.317 9.65909C122.62 9.03788 121.68 8.72727 120.499 8.72727C119.453 8.72727 118.536 9 117.749 9.54545C116.968 10.0833 116.358 10.8447 115.919 11.8295C115.487 12.8068 115.271 13.9545 115.271 15.2727C115.271 16.6212 115.483 17.7955 115.908 18.7955C116.339 19.7955 116.946 20.572 117.726 21.125C118.514 21.678 119.438 21.9545 120.499 21.9545C121.196 21.9545 121.828 21.8333 122.396 21.5909C122.964 21.3485 123.446 21 123.839 20.5455C124.233 20.0909 124.514 19.5455 124.68 18.9091H127.362C127.211 19.9394 126.836 20.8674 126.237 21.6932C125.646 22.5114 124.862 23.1629 123.885 23.6477C122.915 24.125 121.786 24.3636 120.499 24.3636ZM133.964 13.5V24H131.283V0.727272H133.964V9.27273H134.192C134.601 8.37121 135.214 7.6553 136.033 7.125C136.858 6.58712 137.957 6.31818 139.328 6.31818C140.518 6.31818 141.559 6.55682 142.453 7.03409C143.347 7.50379 144.04 8.22727 144.533 9.20455C145.033 10.1742 145.283 11.4091 145.283 12.9091V24H142.601V13.0909C142.601 11.7045 142.241 10.6326 141.521 9.875C140.809 9.10985 139.821 8.72727 138.555 8.72727C137.677 8.72727 136.889 8.91288 136.192 9.28409C135.502 9.6553 134.957 10.197 134.555 10.9091C134.161 11.6212 133.964 12.4848 133.964 13.5ZM157.507 24.3636C155.825 24.3636 154.375 23.9924 153.155 23.25C151.943 22.5 151.007 21.4545 150.348 20.1136C149.696 18.7652 149.371 17.197 149.371 15.4091C149.371 13.6212 149.696 12.0455 150.348 10.6818C151.007 9.31061 151.924 8.24242 153.098 7.47727C154.28 6.70455 155.659 6.31818 157.234 6.31818C158.143 6.31818 159.041 6.4697 159.928 6.77273C160.814 7.07576 161.621 7.56818 162.348 8.25C163.075 8.92424 163.655 9.81818 164.087 10.9318C164.518 12.0455 164.734 13.4167 164.734 15.0455V16.1818H151.28V13.8636H162.007C162.007 12.8788 161.81 12 161.416 11.2273C161.03 10.4545 160.477 9.8447 159.757 9.39773C159.045 8.95076 158.204 8.72727 157.234 8.72727C156.166 8.72727 155.242 8.99242 154.462 9.52273C153.689 10.0455 153.094 10.7273 152.678 11.5682C152.261 12.4091 152.053 13.3106 152.053 14.2727V15.8182C152.053 17.1364 152.28 18.2538 152.734 19.1705C153.196 20.0795 153.837 20.7727 154.655 21.25C155.473 21.7197 156.424 21.9545 157.507 21.9545C158.212 21.9545 158.848 21.8561 159.416 21.6591C159.992 21.4545 160.488 21.1515 160.905 20.75C161.321 20.3409 161.643 19.8333 161.871 19.2273L164.462 19.9545C164.189 20.8333 163.731 21.6061 163.087 22.2727C162.443 22.9318 161.647 23.447 160.7 23.8182C159.753 24.1818 158.689 24.3636 157.507 24.3636Z" fill="#26FC14"/>
</svg>
